# xmcd CD database file
#
# Track frame offsets:
#	150
#	7716
#	27959
#	46443
#	79599
#	94550
#	120601
#	137719
#	157133
#	181354
#	199877
#	212008
#	223587
#	237118
#	248969
#
# Disc length: 3399 seconds
#
# Revision: 0
# Processed by: cddbd v1.5.2PL0 Copyright (c) Steve Scherf et al.
# Submitted via: CDex 1.51
#
DISCID=c60d450f
DTITLE=Compilation - Mistakes Were Made - disc 2
DYEAR=2011
DGENRE=Blues
TTITLE0=Wesley "Junebug" Jefferson - Meet Me In The Bottom
TTITLE1=Jimmy "Duck" Holmes - I'd Rather Be The Devil
TTITLE2=Terry "Harmonica" Bean - Laundromat Blues
TTITLE3=L.C. Ulmer - Rosalee
TTITLE4=Terry "Big T" Williams - Incarcerated Blues
TTITLE5=The Mississippi Marvel - Waterboy, Waterboy
TTITLE6=Pat Thomas - Boogie Chillen
TTITLE7=Jimmy "Duck" Holmes - Eyesight To The Blind
TTITLE8=Odell Harris - Hill Funk
TTITLE9=Bill Abel - No Hard Time (Get You Off My Mind)
TTITLE10=T-Model Ford - Hi Heel Sneakers
TTITLE11=Pat Thomas - Rainbow At Midnight
TTITLE12=The Mississippi Marvel - Evil
TTITLE13=Terry "Harmonica" Bean - Who's Gonna Be Your Sweet Man When I'm Gone
TTITLE14=Jimmy "Duck" Holmes - Take A Trip
EXTD=YEAR: 2011
EXTT0=
EXTT1=
EXTT2=
EXTT3=
EXTT4=
EXTT5=
EXTT6=
EXTT7=
EXTT8=
EXTT9=
EXTT10=
EXTT11=
EXTT12=
EXTT13=
EXTT14=
PLAYORDER=
